<svg width="22" height="20" viewBox="0 0 22 20" fill="none" xmlns="http://www.w3.org/2000/svg">
<path d="M21.7188 0.375H0.28125C0.160937 0.375 0.0625 0.473437 0.0625 0.59375V2.34375C0.0625 2.46406 0.160937 2.5625 0.28125 2.5625H21.7188C21.8391 2.5625 21.9375 2.46406 21.9375 2.34375V0.59375C21.9375 0.473437 21.8391 0.375 21.7188 0.375ZM21.7188 17.4375H0.28125C0.160937 17.4375 0.0625 17.5359 0.0625 17.6562V19.4062C0.0625 19.5266 0.160937 19.625 0.28125 19.625H21.7188C21.8391 19.625 21.9375 19.5266 21.9375 19.4062V17.6562C21.9375 17.5359 21.8391 17.4375 21.7188 17.4375ZM21.7188 8.90625H0.28125C0.160937 8.90625 0.0625 9.00469 0.0625 9.125V10.875C0.0625 10.9953 0.160937 11.0938 0.28125 11.0938H21.7188C21.8391 11.0938 21.9375 10.9953 21.9375 10.875V9.125C21.9375 9.00469 21.8391 8.90625 21.7188 8.90625Z" fill="#5D405C"/>
</svg>
